<?xml version="1.0" encoding="utf-8"?>
<!-- Generator: Adobe Illustrator 19.2.0, SVG Export Plug-In . SVG Version: 6.00 Build 0)  -->
<!DOCTYPE svg PUBLIC "-//W3C//DTD SVG 1.1//EN" "http://www.w3.org/Graphics/SVG/1.1/DTD/svg11.dtd">
<svg version="1.1" id="Layer_1" xmlns="http://www.w3.org/2000/svg" xmlns:xlink="http://www.w3.org/1999/xlink" x="0px" y="0px"
	 viewBox="0 0 1792 1792" style="enable-background:new 0 0 1792 1792;" xml:space="preserve">
<style type="text/css">
	.st0{fill:#EFEFEF;}
</style>
<path class="st0" d="M1376,128c79.3,0,147.2,28.2,203.5,84.5S1664,336.7,1664,416v960c0,79.3-28.2,147.2-84.5,203.5
	S1455.3,1664,1376,1664h-188v-595h199l30-232h-229V689c0-37.3,7.8-65.3,23.5-84s46.2-28,91.5-28l122-1V369c-42-6-101.3-9-178-9
	c-90.7,0-163.2,26.7-217.5,80C975.2,493.3,948,568.7,948,666v171H748v232h200v595H416c-79.3,0-147.2-28.2-203.5-84.5
	S128,1455.3,128,1376V416c0-79.3,28.2-147.2,84.5-203.5S336.7,128,416,128H1376z"/>
</svg>
