<?xml version="1.0" encoding="utf-8"?>
<!-- Generator: Adobe Illustrator 19.2.0, SVG Export Plug-In . SVG Version: 6.00 Build 0)  -->
<!DOCTYPE svg PUBLIC "-//W3C//DTD SVG 1.1//EN" "http://www.w3.org/Graphics/SVG/1.1/DTD/svg11.dtd">
<svg version="1.1" id="Layer_1" xmlns="http://www.w3.org/2000/svg" xmlns:xlink="http://www.w3.org/1999/xlink" x="0px" y="0px"
	 viewBox="0 0 1792 1792" style="enable-background:new 0 0 1792 1792;" xml:space="preserve">
<style type="text/css">
	.st0{fill:#EFEFEF;}
</style>
<path class="st0" d="M1664,192v1408c0,17.3-6.3,32.3-19,45s-27.7,19-45,19h-512c-17.3,0-32.3-6.3-45-19s-19-27.7-19-45V192
	c0-17.3,6.3-32.3,19-45s27.7-19,45-19h512c17.3,0,32.3,6.3,45,19S1664,174.7,1664,192z M768,192v1408c0,17.3-6.3,32.3-19,45
	s-27.7,19-45,19H192c-17.3,0-32.3-6.3-45-19s-19-27.7-19-45V192c0-17.3,6.3-32.3,19-45s27.7-19,45-19h512c17.3,0,32.3,6.3,45,19
	S768,174.7,768,192z"/>
</svg>
