<?xml version="1.0" encoding="utf-8"?>
<!-- Generator: Adobe Illustrator 19.2.0, SVG Export Plug-In . SVG Version: 6.00 Build 0)  -->
<!DOCTYPE svg PUBLIC "-//W3C//DTD SVG 1.1//EN" "http://www.w3.org/Graphics/SVG/1.1/DTD/svg11.dtd">
<svg version="1.1" id="Layer_1" xmlns="http://www.w3.org/2000/svg" xmlns:xlink="http://www.w3.org/1999/xlink" x="0px" y="0px"
	 viewBox="0 0 1792 1792" style="enable-background:new 0 0 1792 1792;" xml:space="preserve">
<style type="text/css">
	.st0{fill:#EFEFEF;}
</style>
<path class="st0" d="M640,1280c0-35.3-12.5-65.5-37.5-90.5S547.3,1152,512,1152s-65.5,12.5-90.5,37.5S384,1244.7,384,1280
	s12.5,65.5,37.5,90.5s55.2,37.5,90.5,37.5s65.5-12.5,90.5-37.5S640,1315.3,640,1280z M991,1374c-8.7-154.7-67.7-286.7-177-396
	S572.7,809.7,418,801c-9.3-0.7-17.3,2.3-24,9s-10,14.3-10,23v128c0,8.7,2.8,16,8.5,22s12.8,9.3,21.5,10
	c102.7,7.3,190.7,47.7,264,121s113.7,161.3,121,264c0.7,8.7,4,15.8,10,21.5s13.3,8.5,22,8.5h128c8.7,0,16.3-3.3,23-10
	S991.7,1383.3,991,1374z M1375,1375c-3.3-102.7-22-201.8-56-297.5s-80.5-182.3-139.5-260s-127.3-146-205-205S810.2,507,714.5,473
	S519.7,420.3,417,417c-9.3-0.7-17,2.3-23,9c-6.7,6.7-10,14.3-10,23v128c0,8.7,3,16,9,22s13.3,9.3,22,10c136,4.7,262,41.8,378,111.5
	S1001.8,883,1071.5,999s106.8,242,111.5,378c0.7,8.7,4,16,10,22s13.3,9,22,9h128c8.7,0,16.3-3.3,23-10
	C1373.3,1392,1376.3,1384.3,1375,1375z M1664,416v960c0,79.3-28.2,147.2-84.5,203.5S1455.3,1664,1376,1664H416
	c-79.3,0-147.2-28.2-203.5-84.5S128,1455.3,128,1376V416c0-79.3,28.2-147.2,84.5-203.5S336.7,128,416,128h960
	c79.3,0,147.2,28.2,203.5,84.5S1664,336.7,1664,416z"/>
</svg>
