<?xml version="1.0" encoding="utf-8"?>
<!-- Generator: Adobe Illustrator 19.2.0, SVG Export Plug-In . SVG Version: 6.00 Build 0)  -->
<!DOCTYPE svg PUBLIC "-//W3C//DTD SVG 1.1//EN" "http://www.w3.org/Graphics/SVG/1.1/DTD/svg11.dtd">
<svg version="1.1" id="Layer_1" xmlns="http://www.w3.org/2000/svg" xmlns:xlink="http://www.w3.org/1999/xlink" x="0px" y="0px"
	 viewBox="0 0 1792 1792" style="enable-background:new 0 0 1792 1792;" xml:space="preserve">
<style type="text/css">
	.st0{fill:#EFEFEF;}
</style>
<path class="st0" d="M1408,610c-37.3,16.7-77.7,28-121,34c45.3-26.7,76.3-65.7,93-117c-43.3,25.3-88,42.3-134,51
	c-40.7-44-91.7-66-153-66c-58,0-107.5,20.5-148.5,61.5S883,664,883,722c0,19.3,1.7,35.3,5,48c-86-4.7-166.7-26.3-242-65
	s-139.3-90.3-192-155c-19.3,33.3-29,68.7-29,106c0,76,30.3,134.3,91,175c-31.3-0.7-64.7-9.3-100-26v2c0,50,16.7,94.5,50,133.5
	s74.3,63.2,123,72.5c-19.3,5.3-36.3,8-51,8c-8.7,0-21.7-1.3-39-4c14,42,38.8,76.7,74.5,104s76.2,41.3,121.5,42
	c-77.3,60-164.3,90-261,90c-17.3,0-34-1-50-3c98.7,62.7,206,94,322,94c74.7,0,144.7-11.8,210-35.5s121.3-55.3,168-95
	s86.8-85.3,120.5-137s58.7-105.7,75-162S1304,802,1304,746c0-12-0.3-21-1-27C1345,689,1380,652.7,1408,610z M1664,416v960
	c0,79.3-28.2,147.2-84.5,203.5S1455.3,1664,1376,1664H416c-79.3,0-147.2-28.2-203.5-84.5S128,1455.3,128,1376V416
	c0-79.3,28.2-147.2,84.5-203.5S336.7,128,416,128h960c79.3,0,147.2,28.2,203.5,84.5S1664,336.7,1664,416z"/>
</svg>
