<?xml version="1.0" encoding="utf-8"?>
<!-- Generator: Adobe Illustrator 19.2.0, SVG Export Plug-In . SVG Version: 6.00 Build 0)  -->
<!DOCTYPE svg PUBLIC "-//W3C//DTD SVG 1.1//EN" "http://www.w3.org/Graphics/SVG/1.1/DTD/svg11.dtd">
<svg version="1.1" id="Layer_1" xmlns="http://www.w3.org/2000/svg" xmlns:xlink="http://www.w3.org/1999/xlink" x="0px" y="0px"
	 viewBox="0 0 1792 1792" style="enable-background:new 0 0 1792 1792;" xml:space="preserve">
<style type="text/css">
	.st0{fill:#EFEFEF;}
</style>
<path class="st0" d="M1047,1303v-157c0-33.3-9.7-50-29-50c-11.3,0-22.3,5.3-33,16v224c10.7,10.7,21.7,16,33,16
	C1037.3,1352,1047,1335.7,1047,1303z M1231,1181h66v-34c0-34-11-51-33-51s-33,17-33,51V1181z M660,915v70h-80v423h-74V985h-78v-70
	H660z M861,1041v367h-67v-40c-26,30-51.3,45-76,45c-22,0-36-9.3-42-28c-4-10.7-6-28.7-6-54v-290h66v270c0,16,0.3,24.7,1,26
	c0.7,10,5.7,15,15,15c13.3,0,27.3-10.3,42-31v-280H861z M1113,1152v146c0,34.7-2.3,59-7,73c-8,28-25.7,42-53,42
	c-23.3,0-46-13.7-68-41v36h-67V915h67v161c21.3-26.7,44-40,68-40c27.3,0,45,14,53,42C1110.7,1092,1113,1116.7,1113,1152z M1364,1281
	v9c0,19.3-0.7,33.7-2,43c-2,14.7-7,28-15,40c-18,26.7-44.7,40-80,40c-34.7,0-61.7-12.7-81-38c-14-18-21-46.7-21-86v-129
	c0-39.3,6.7-68,20-86c19.3-25.3,46-38,80-38s60,12.7,78,38c14,18.7,21,47.3,21,86v76h-133v65c0,34,11.3,51,34,51c16,0,26-8.7,30-26
	c0-0.7,0.2-3,0.5-7s0.5-9.5,0.5-16.5V1281H1364z M913,457v156c0,34-10.7,51-32,51s-32-17-32-51V457c0-34.7,10.7-52,32-52
	S913,422.3,913,457z M1446,1170c0-118-6.3-204.7-19-260c-6.7-29.3-21-53.8-43-73.5s-47.3-31.2-76-34.5c-90.7-10-228-15-412-15
	c-183.3,0-320.3,5-411,15c-29.3,3.3-54.8,14.8-76.5,34.5S372.7,880.7,366,910c-13.3,58-20,144.7-20,260c0,117.3,6.7,204,20,260
	c6.7,28.7,20.8,53,42.5,73s46.8,31.7,75.5,35c91.3,10,228.7,15,412,15s320.7-5,412-15c28.7-3.3,53.8-15,75.5-35s35.8-44.3,42.5-73
	C1439.3,1374,1446,1287.3,1446,1170z M691,519l90-296h-75l-51,195l-53-195h-78l24,69l23,69c23.3,68.7,38.7,121.3,46,158v201h74V519z
	 M980,600V470c0-38.7-7-67.7-21-87c-19.3-25.3-45.3-38-78-38c-34,0-60,12.7-78,38c-14,19.3-21,48.3-21,87v130c0,38.7,7,67.7,21,87
	c18,25.3,44,38,78,38c32.7,0,58.7-12.7,78-38C973,669,980,640,980,600z M1161,720h67V350h-67v283c-14.7,20.7-28.7,31-42,31
	c-10,0-15.3-5.3-16-16c-0.7-1.3-1-10-1-26V350h-67v293c0,24.7,2,43,6,55c7.3,18,21.7,27,43,27c24,0,49.7-15,77-45V720z M1664,416
	v960c0,79.3-28.2,147.2-84.5,203.5S1455.3,1664,1376,1664H416c-79.3,0-147.2-28.2-203.5-84.5S128,1455.3,128,1376V416
	c0-79.3,28.2-147.2,84.5-203.5S336.7,128,416,128h960c79.3,0,147.2,28.2,203.5,84.5S1664,336.7,1664,416z"/>
</svg>
